<svg width="355" height="83" viewBox="0 0 355 83" fill="none" xmlns="http://www.w3.org/2000/svg">
<g clip-path="url(#clip0_92_40)">
<path d="M18.3842 14.9985H17.6182C17.6182 14.6596 17.2778 14.49 16.5968 14.49C16.0011 14.49 15.5329 14.7019 15.1925 15.1256L12.8945 15.3798C12.4689 15.3798 12.0434 15.4222 11.6178 15.5069C11.2774 15.5069 10.9369 15.5069 10.5964 15.5069C10.4262 15.4222 10.0858 15.3374 9.5751 15.2527C9.06443 15.0832 8.51117 14.9985 7.91542 14.9985C7.31967 14.9985 6.97915 15.1256 6.89407 15.3798C5.70247 15.4645 4.89398 15.5493 4.46838 15.634C4.12794 15.634 3.53215 15.634 2.68103 15.634C2.42569 15.5493 2.21292 15.4645 2.04269 15.3798C1.87246 15.2103 1.70224 15.0409 1.53202 14.8714C1.10645 14.7019 0.766008 14.2782 0.510672 13.6003C0.255336 12.9224 0.0851087 12.1174 0 11.1853C0 10.2532 0 9.36342 0 8.51608C0 7.66874 0 7.03321 0 6.60949C0.0851087 6.52479 0.170227 6.43999 0.255336 6.35528C0.425564 6.18578 0.595781 6.01637 0.766008 5.84686L1.65968 5.08423H3.70237C4.29815 5.16893 4.89398 5.21133 5.48973 5.21133C6.08548 5.21133 6.76641 5.21133 7.53242 5.21133C7.53242 5.21133 7.78775 5.16893 8.29842 5.08423L8.93676 4.70291C11.8305 4.70291 14.5116 4.83001 16.9799 5.08423C19.4481 5.25373 21.8738 5.46554 24.2569 5.71975C26.7252 5.97396 29.1934 6.22818 31.6617 6.48239C34.13 6.6519 36.8961 6.7366 39.9601 6.7366C39.9601 6.99081 40.0452 7.20262 40.2154 7.37213L40.5984 7.75344C40.7687 7.83815 41.1517 7.88055 41.7475 7.88055C43.0241 7.88055 44.0029 7.88055 44.6838 7.88055C45.4498 7.79585 46.0882 7.71104 46.5988 7.62634C47.1095 7.45683 47.5776 7.28742 48.0032 7.11792C48.4288 6.94841 48.9819 6.779 49.6629 6.60949C50.0033 7.03321 50.131 7.45683 50.0459 7.88055C50.0459 8.30427 50.3863 8.77029 51.0672 9.27871C50.897 9.53292 50.8119 9.82954 50.8119 10.1685C50.8119 10.5922 50.8545 10.804 50.9396 10.804C50.9396 10.9735 50.897 11.27 50.8119 11.6937C50.7268 12.1174 50.6842 12.414 50.6842 12.5835C50.6842 12.9224 50.7268 13.1343 50.8119 13.219C50.9821 13.219 51.1523 13.219 51.3226 13.219C50.3863 13.8121 49.4501 14.2782 48.5139 14.6172C47.6628 14.8714 47.0669 15.0409 46.7265 15.1256C45.7052 15.1256 44.7689 15.1256 43.9178 15.1256C43.1518 15.1256 42.3007 15.0409 41.3645 14.8714C40.0878 15.0409 39.1941 15.2103 38.6834 15.3798C38.2578 15.4645 37.9174 15.5069 37.6621 15.5069C37.0663 15.5069 36.6407 15.4645 36.3854 15.3798C36.1301 15.2951 35.7471 15.168 35.2364 14.9985H30.6403L31.151 21.8622L34.215 29.4885V51.2236L34.9811 53.8928V62.6631L31.6617 63.6799L21.3206 62.7902L18.1289 63.4257L16.5968 60.5023L16.2138 53.2573V35.4625L18.3842 23.2603V14.9985ZM65.5685 16.0153C65.9941 14.7443 66.6325 13.7698 67.4835 13.0919C68.3346 12.3292 69.3986 11.6937 70.6752 11.1853C71.9519 10.5922 73.5265 10.0413 75.399 9.53292C77.2714 9.0245 79.3567 8.38897 81.6547 7.62634C81.7398 7.37213 82.208 7.24502 83.059 7.24502C83.9953 7.24502 84.9741 7.24502 85.9954 7.24502C87.1018 7.24502 88.0807 7.20262 88.9318 7.11792C89.868 6.94841 90.3787 6.6519 90.4638 6.22818C91.2298 6.39768 91.8681 6.52479 92.3788 6.60949C92.8895 6.6942 93.3576 6.7366 93.7832 6.7366C94.2938 6.7366 94.8045 6.7366 95.3152 6.7366C95.9106 6.7366 96.6347 6.7366 97.4855 6.7366H99.5282C99.6988 6.90611 99.8683 7.11792 100.039 7.37213C100.209 7.54164 100.379 7.71104 100.55 7.88055C100.89 7.88055 101.188 8.26187 101.443 9.0245C101.699 9.70243 101.997 10.5074 102.337 11.4395C102.677 12.3717 103.06 13.219 103.486 13.9816C103.912 14.7443 104.464 15.1256 105.146 15.1256H105.401C105.486 15.2951 105.529 15.8458 105.529 16.7779C105.613 17.6253 105.699 18.5574 105.784 19.5743C105.955 20.5064 106.124 21.3962 106.295 22.2435C106.465 23.0908 106.678 23.5993 106.933 23.7688C107.018 26.0567 107.145 27.709 107.316 28.7259C107.571 29.7427 107.784 30.5478 107.954 31.1409C108.21 31.6493 108.422 32.1153 108.593 32.5391C108.848 32.878 109.019 33.3864 109.103 34.0643C109.103 34.0643 109.103 34.4032 109.103 35.0812C109.188 35.6743 109.274 36.3522 109.359 37.1149C109.443 37.7928 109.571 38.4706 109.742 39.1485C109.912 39.8265 110.125 40.1654 110.38 40.1654C110.295 40.1654 110.209 40.2078 110.125 40.2925H109.742C109.826 42.2415 109.869 43.9786 109.869 45.5038C109.954 47.0291 109.997 48.512 109.997 49.9525C110.082 51.3083 110.168 52.7489 110.252 54.2741C110.423 55.7994 110.551 57.5362 110.635 59.4855C110.295 60.1637 109.997 60.7138 109.742 61.1378C109.486 61.4764 109.316 61.8578 109.231 62.2818H107.444C106.762 61.9432 106.295 61.5618 106.039 61.1378C104.933 61.1378 103.954 61.2222 103.103 61.392C102.252 61.4764 101.486 61.6035 100.805 61.7734C100.209 61.9432 99.613 62.0703 99.0175 62.1547C98.4221 62.2391 97.7838 62.2818 97.1025 62.2818C96.2517 62.2818 95.2304 61.9849 94.0385 61.392C92.8469 60.7138 91.6979 60.3752 90.5915 60.3752C89.5701 60.3752 88.7615 60.5023 88.1658 60.7565C87.6551 60.9263 87.2721 61.1805 87.0168 61.5191C86.8465 61.7734 86.6763 61.9849 86.5061 62.1547C86.421 62.4089 86.2933 62.536 86.1231 62.536H85.9954H78.9737C77.8672 62.536 76.7607 62.4933 75.6543 62.4089C74.5479 62.4089 73.3563 62.4089 72.0796 62.4089C70.9732 62.4089 69.6965 62.112 68.2495 61.5191C66.8026 60.8409 65.3983 59.9939 64.0365 58.977C62.6747 57.8758 61.5257 56.6891 60.5895 55.4181C59.6532 54.0623 59.1851 52.7065 59.1851 51.3507C59.1851 47.1138 60.1639 43.5548 62.1215 40.6738C64.1642 37.7928 67.2282 35.3354 71.3136 33.3017C73.0159 32.878 74.3776 32.4543 75.399 32.0306C76.4203 31.6069 77.314 31.2256 78.08 30.8867C78.9311 30.463 79.7397 30.1664 80.5057 29.9969C81.2717 29.7427 82.208 29.6156 83.3144 29.6156L87.1444 27.4548C87.9104 27.4548 88.5914 27.4548 89.1871 27.4548C89.7829 27.3701 90.3787 27.2853 90.9745 27.2006L94.6768 26.9464V26.1838C94.6768 25.4211 94.7197 24.6161 94.8045 23.7688C94.8893 22.8366 95.1446 21.8622 95.5705 20.8453C95.5705 20.3369 95.4 19.998 95.0598 19.8285C94.7197 19.5743 94.4641 19.3201 94.2938 19.0659C93.8682 18.8963 93.5704 18.6845 93.4002 18.4303C93.3151 18.0914 93.2299 17.7524 93.1448 17.4135C93.0597 17.0746 92.8469 16.7779 92.5065 16.5237C92.2511 16.2695 91.7831 16.1424 91.1021 16.1424C89.8254 16.1424 88.1658 16.3542 86.1231 16.7779C84.1655 17.2017 82.1228 17.7101 79.995 18.3032C77.9523 18.8963 76.0373 19.4896 74.2499 20.0827C72.5477 20.5911 71.271 20.93 70.4199 21.0995C70.1646 21.0995 69.8666 20.8453 69.5262 20.3369C69.1858 19.8285 68.8028 19.2354 68.3772 18.5574C68.0368 17.8795 67.6112 17.2864 67.1005 16.7779C66.6749 16.2695 66.1643 16.0153 65.5685 16.0153ZM93.2725 37.3691C92.5065 37.1996 91.6554 36.9877 90.7191 36.7335C89.868 36.4793 89.0169 36.2251 88.1658 35.9709H87.6551C86.9742 35.9709 86.2507 36.0556 85.4847 36.2251C84.8038 36.3946 84.0378 36.6064 83.1867 36.8606C81.4844 37.2844 79.8673 37.6657 78.3353 38.0046C76.8033 38.3435 75.4416 38.8943 74.2499 39.657C73.1435 40.3349 72.2498 41.3517 71.5689 42.7075C70.9732 44.0633 70.6752 45.9276 70.6752 48.3002C70.6752 49.4865 70.8455 50.3762 71.1859 50.9694C71.6115 51.5625 72.1222 52.3675 72.7179 53.3844L81.6547 52.876C83.0165 52.7913 84.4208 52.7065 85.8677 52.6217C87.3147 52.537 88.8892 52.4099 90.5915 52.2404H92.3788V51.2236C92.3788 50.5457 92.4214 49.4865 92.5065 48.0459C92.5916 46.6054 92.8469 45.2072 93.2725 43.8515V37.3691ZM147.44 35.2083V35.4625C147.44 35.7167 147.524 35.8862 147.695 35.9709C148.376 35.293 149.015 34.7846 149.61 34.4456C150.205 34.1067 150.716 33.7677 151.142 33.4288C151.993 33.0899 152.674 32.7086 153.185 32.2848C153.695 31.7764 154.717 31.1833 156.249 30.5054C157.781 28.9801 159.057 27.7937 160.079 26.9464C161.1 26.0991 162.037 25.4211 162.887 24.9127C163.738 24.4043 164.547 23.9383 165.313 23.5145C166.079 23.0908 167.058 22.5401 168.25 21.8622C168.76 22.2011 169.228 22.413 169.654 22.4977C170.08 22.5824 170.463 22.6248 170.803 22.6248C171.314 22.6248 171.654 22.5824 171.824 22.4977C172.42 22.8366 172.846 23.3027 173.101 23.8959C173.441 24.489 173.739 25.0398 173.995 25.5482C172.207 27.243 170.632 28.7683 169.271 30.124C167.909 31.3951 166.633 32.5815 165.441 33.683C164.249 34.6998 163.058 35.7167 161.866 36.7335C160.674 37.6657 159.356 38.6401 157.908 39.657C159.015 40.5043 160.206 41.3093 161.483 42.072C162.845 42.8346 164.249 43.6819 165.696 44.6141C167.143 45.5462 168.717 46.5631 170.42 47.6646C172.122 48.7662 173.867 50.1643 175.654 51.8591C175.994 52.3675 176.463 52.876 177.059 53.3844C177.74 53.8928 178.378 54.4436 178.974 55.0368C179.569 55.5452 180.08 56.0536 180.506 56.562C180.932 57.0704 181.144 57.5789 181.144 58.0873C181.144 58.5957 180.889 58.9343 180.378 59.1041C179.867 59.2739 179.101 59.5699 178.08 59.9939C176.037 60.9263 174.505 61.9432 173.484 63.0444C172.463 64.2311 171.441 65.0354 170.42 65.4594L168.122 64.3155C167.696 64.0613 167.399 63.8914 167.228 63.807C167.143 63.7226 166.973 63.5955 166.718 63.4257C166.462 63.2559 166.122 63.0017 165.696 62.6631C165.356 62.4089 164.803 61.9432 164.036 61.2649C162.675 59.9939 161.866 59.1468 161.611 58.7228C161.355 58.2144 161.228 57.9175 161.228 57.8331V57.706L160.717 56.8162C160.547 56.6464 160.334 56.3502 160.079 55.9265C159.823 55.5028 159.228 54.8672 158.291 54.0199C157.355 53.0878 156.078 51.9438 154.461 50.5881C152.845 49.1475 150.588 47.368 147.695 45.2496C147.1 45.5885 146.758 46.0123 146.674 46.5207C146.674 47.0291 146.674 47.4951 146.674 47.9188C146.674 48.7662 146.717 49.4865 146.801 50.0796C146.886 50.6728 147.141 51.7744 147.567 53.3844C148.078 55.5028 148.29 57.4518 148.206 59.2312C148.206 61.0107 148.29 62.6631 148.461 64.1884C147.184 64.8666 145.823 65.3323 144.376 65.5865C142.928 65.8407 141.439 65.9678 139.907 65.9678C138.46 66.0523 137.014 66.0523 135.567 65.9678C134.119 65.9678 132.885 65.9678 131.864 65.9678L130.587 63.5528C130.417 63.2142 130.247 62.8329 130.077 62.4089C129.906 62.0703 129.694 61.6035 129.438 61.0107C129.438 60.8409 129.481 60.5867 129.566 60.2481C129.737 59.9095 129.906 59.5699 130.077 59.2312C129.992 57.5362 129.949 55.9265 129.949 54.4012C129.949 52.876 129.949 51.3931 129.949 49.9525C129.949 46.1394 129.992 42.538 130.077 39.1485C130.162 35.6743 130.247 32.2424 130.332 28.853C130.417 25.4635 130.503 22.0317 130.587 18.5574C130.758 14.9985 130.843 11.1853 130.843 7.11792V1.39816C131.183 1.05925 131.524 0.88974 131.864 0.88974C132.204 0.805036 132.63 0.508423 133.141 0C134.333 0.084704 135.268 0.169508 135.95 0.254212C136.631 0.254212 137.226 0.296612 137.737 0.381316C138.332 0.381316 138.971 0.381316 139.652 0.381316C140.333 0.381316 141.396 0.381316 142.844 0.381316C143.27 1.73708 143.567 3.77077 143.737 6.48239C143.908 9.10921 144.036 11.9479 144.12 14.9985C144.205 17.9643 144.248 20.8877 144.248 23.7688C144.248 26.6498 144.291 28.9801 144.376 30.7596L145.142 34.6998C145.397 35.2083 145.823 35.4625 146.418 35.4625C146.758 35.4625 147.1 35.3778 147.44 35.2083ZM189.552 29.7427C189.807 27.8785 190.361 26.2685 191.212 24.9127C192.063 23.4721 193.127 22.2435 194.404 21.2266C195.68 20.1251 197.085 19.193 198.617 18.4303C200.149 17.6677 201.681 17.0746 203.213 16.6508L212.277 15.2527C212.277 15.5916 212.49 15.8458 212.915 16.0153C213.426 16.1848 213.98 16.2695 214.575 16.2695C215.256 16.2695 216.022 16.2271 216.873 16.1424C217.724 16.0577 218.32 16.0153 218.66 16.0153H218.916C222.746 17.7948 225.682 20.3369 227.725 23.6417C229.852 26.9464 230.917 30.6325 230.917 34.6998C230.917 35.8014 230.534 36.8606 229.768 37.8775C229.002 38.8943 228.065 39.8265 226.959 40.6738C225.938 41.4365 224.831 42.1144 223.64 42.7075C222.533 43.3006 221.682 43.7243 221.086 43.9786L210.362 47.5375C209.851 47.8764 209.384 48.1306 208.958 48.3002C208.532 48.4697 208.149 48.5968 207.809 48.6815H204.745L191.212 44.7412L189.935 43.0888C189.34 41.5636 189.041 39.7841 189.041 37.7504C189.041 36.6488 189.041 35.4201 189.041 34.0643C189.126 32.7086 189.297 31.268 189.552 29.7427ZM213.171 23.8959C212.32 23.6417 211.596 23.5145 211 23.5145C210.064 23.5145 209.17 23.7264 208.319 24.1501C207.553 24.489 206.83 24.9551 206.149 25.5482C205.554 26.0567 205 26.5651 204.489 27.0735C203.979 27.5819 203.468 27.9632 202.957 28.2175L202.319 35.8438L205.638 38.7672H207.426L221.086 35.9709L224.406 31.1409C223.98 29.6156 223.341 28.4717 222.491 27.709C221.725 26.9464 220.831 26.3533 219.81 25.9296C218.788 25.4211 217.682 25.0398 216.49 24.7856C215.298 24.5314 214.192 24.2348 213.171 23.8959ZM267.552 55.291H267.935L266.531 54.5283L266.148 53.2573L255.169 42.7075L252.998 38.6401L244.572 25.0398L244.955 23.7688L251.594 23.1332L252.871 23.6417L261.68 33.3017L262.829 34.827L272.787 43.2159L274.319 42.5804L275.468 41.1822L276.744 40.6738L278.021 37.1149L280.192 34.4456L282.617 29.2343L287.469 23.0061H298.065V25.4211L296.533 29.9969L293.724 34.827L289.767 40.5467L285.937 49.5712L282.49 52.6217L280.702 55.4181H281.34V57.8331L279.809 60.3752L275.851 66.6034L272.787 74.2297L270.999 79.9495L268.446 81.9832H259.637L258.233 83H256.445L254.786 79.9495L267.552 55.291ZM309.933 16.0153C310.359 14.7443 310.997 13.7698 311.848 13.0919C312.699 12.3292 313.763 11.6937 315.04 11.1853C316.317 10.5922 317.891 10.0413 319.764 9.53292C321.636 9.0245 323.721 8.38897 326.019 7.62634C326.104 7.37213 326.573 7.24502 327.424 7.24502C328.36 7.24502 329.339 7.24502 330.36 7.24502C331.466 7.24502 332.446 7.20262 333.296 7.11792C334.233 6.94841 334.744 6.6519 334.828 6.22818C335.594 6.39768 336.233 6.52479 336.743 6.60949C337.254 6.6942 337.722 6.7366 338.148 6.7366C338.658 6.7366 339.169 6.7366 339.68 6.7366C340.275 6.7366 340.999 6.7366 341.85 6.7366H343.893C344.063 6.90611 344.233 7.11792 344.404 7.37213C344.574 7.54164 344.744 7.71104 344.914 7.88055C345.254 7.88055 345.553 8.26187 345.808 9.0245C346.063 9.70243 346.361 10.5074 346.702 11.4395C347.042 12.3717 347.425 13.219 347.851 13.9816C348.276 14.7443 348.829 15.1256 349.51 15.1256H349.766C349.85 15.2951 349.893 15.8458 349.893 16.7779C349.978 17.6253 350.064 18.5574 350.149 19.5743C350.319 20.5064 350.489 21.3962 350.659 22.2435C350.83 23.0908 351.042 23.5993 351.298 23.7688C351.382 26.0567 351.51 27.709 351.681 28.7259C351.936 29.7427 352.148 30.5478 352.319 31.1409C352.574 31.6493 352.787 32.1153 352.957 32.5391C353.213 32.878 353.383 33.3864 353.468 34.0643C353.468 34.0643 353.468 34.4032 353.468 35.0812C353.553 35.6743 353.639 36.3522 353.723 37.1149C353.808 37.7928 353.936 38.4706 354.106 39.1485C354.277 39.8265 354.489 40.1654 354.745 40.1654C354.66 40.1654 354.574 40.2078 354.489 40.2925H354.106C354.191 42.2415 354.234 43.9786 354.234 45.5038C354.319 47.0291 354.362 48.512 354.362 49.9525C354.446 51.3083 354.532 52.7489 354.617 54.2741C354.788 55.7994 354.915 57.5362 355 59.4855C354.66 60.1637 354.362 60.7138 354.106 61.1378C353.851 61.4764 353.68 61.8578 353.596 62.2818H351.808C351.127 61.9432 350.659 61.5618 350.404 61.1378C349.298 61.1378 348.318 61.2222 347.468 61.392C346.617 61.4764 345.851 61.6035 345.17 61.7734C344.574 61.9432 343.978 62.0703 343.382 62.1547C342.787 62.2391 342.148 62.2818 341.467 62.2818C340.616 62.2818 339.595 61.9849 338.403 61.392C337.211 60.7138 336.062 60.3752 334.956 60.3752C333.935 60.3752 333.126 60.5023 332.53 60.7565C332.02 60.9263 331.637 61.1805 331.381 61.5191C331.211 61.7734 331.041 61.9849 330.871 62.1547C330.786 62.4089 330.658 62.536 330.488 62.536H330.36H323.338C322.232 62.536 321.125 62.4933 320.019 62.4089C318.913 62.4089 317.721 62.4089 316.444 62.4089C315.338 62.4089 314.061 62.112 312.614 61.5191C311.167 60.8409 309.763 59.9939 308.401 58.977C307.04 57.8758 305.891 56.6891 304.954 55.4181C304.018 54.0623 303.55 52.7065 303.55 51.3507C303.55 47.1138 304.528 43.5548 306.486 40.6738C308.529 37.7928 311.593 35.3354 315.678 33.3017C317.381 32.878 318.742 32.4543 319.764 32.0306C320.785 31.6069 321.679 31.2256 322.445 30.8867C323.295 30.463 324.104 30.1664 324.87 29.9969C325.636 29.7427 326.573 29.6156 327.679 29.6156L331.509 27.4548C332.275 27.4548 332.956 27.4548 333.552 27.4548C334.147 27.3701 334.744 27.2853 335.339 27.2006L339.041 26.9464V26.1838C339.041 25.4211 339.084 24.6161 339.169 23.7688C339.254 22.8366 339.509 21.8622 339.935 20.8453C339.935 20.3369 339.765 19.998 339.424 19.8285C339.084 19.5743 338.829 19.3201 338.658 19.0659C338.233 18.8963 337.935 18.6845 337.765 18.4303C337.68 18.0914 337.594 17.7524 337.509 17.4135C337.425 17.0746 337.211 16.7779 336.871 16.5237C336.616 16.2695 336.148 16.1424 335.467 16.1424C334.19 16.1424 332.53 16.3542 330.488 16.7779C328.53 17.2017 326.487 17.7101 324.36 18.3032C322.317 18.8963 320.402 19.4896 318.615 20.0827C316.912 20.5911 315.635 20.93 314.785 21.0995C314.529 21.0995 314.231 20.8453 313.891 20.3369C313.551 19.8285 313.168 19.2354 312.742 18.5574C312.402 17.8795 311.976 17.2864 311.465 16.7779C311.039 16.2695 310.529 16.0153 309.933 16.0153ZM337.637 37.3691C336.871 37.1996 336.02 36.9877 335.084 36.7335C334.233 36.4793 333.381 36.2251 332.53 35.9709H332.02C331.339 35.9709 330.615 36.0556 329.849 36.2251C329.168 36.3946 328.402 36.6064 327.551 36.8606C325.849 37.2844 324.232 37.6657 322.7 38.0046C321.168 38.3435 319.806 38.8943 318.615 39.657C317.508 40.3349 316.615 41.3517 315.934 42.7075C315.338 44.0633 315.04 45.9276 315.04 48.3002C315.04 49.4865 315.21 50.3762 315.551 50.9694C315.976 51.5625 316.487 52.3675 317.083 53.3844L326.019 52.876C327.381 52.7913 328.785 52.7065 330.232 52.6217C331.68 52.537 333.254 52.4099 334.956 52.2404H336.743V51.2236C336.743 50.5457 336.786 49.4865 336.871 48.0459C336.956 46.6054 337.211 45.2072 337.637 43.8515V37.3691Z" fill="white"/>
<path d="M212 42C219.732 42 226 37.299 226 31.5C226 25.701 219.732 21 212 21C204.268 21 198 25.701 198 31.5C198 37.299 204.268 42 212 42Z" fill="white"/>
</g>
<defs>
<clipPath id="clip0_92_40">
<rect width="355" height="83" fill="white"/>
</clipPath>
</defs>
</svg>
