<svg width="355" height="83" viewBox="0 0 355 83" fill="none" xmlns="http://www.w3.org/2000/svg">
<g clip-path="url(#clip0_92_40)">
<mask id="mask0_92_40" style="mask-type:luminance" maskUnits="userSpaceOnUse" x="0" y="0" width="355" height="83">
<path d="M355 0H0V83H355V0Z" fill="white"/>
</mask>
<g mask="url(#mask0_92_40)">
<path d="M18.5813 15.4313H17.8165C17.8165 15.0966 17.4766 14.9291 16.7967 14.9291C16.2019 14.9291 15.7345 15.1384 15.3946 15.5568L13.1002 15.808C12.6753 15.808 12.2504 15.8498 11.8256 15.9335C11.4857 15.9335 11.1458 15.9335 10.8058 15.9335C10.6359 15.8498 10.296 15.7661 9.78611 15.6824C9.27624 15.515 8.7239 15.4313 8.12903 15.4313C7.53416 15.4313 7.19427 15.5568 7.10927 15.808C5.91959 15.8917 5.1123 15.9753 4.68742 16.059C4.34751 16.059 3.75266 16.059 2.90288 16.059C2.64795 15.9753 2.4355 15.8917 2.26554 15.808C2.09559 15.6405 1.92563 15.4732 1.75568 15.3058C1.33079 15.1384 0.990877 14.7199 0.735945 14.0504C0.481008 13.3808 0.311052 12.5857 0.226074 11.6651C0.226074 10.7445 0.226074 9.86572 0.226074 9.02879C0.226074 8.1918 0.226074 7.56415 0.226074 7.14565C0.311052 7.06197 0.39603 6.97828 0.481008 6.8946C0.650963 6.72718 0.820922 6.55981 0.990877 6.39241L1.88314 5.63917H3.92261C4.51746 5.72286 5.1123 5.76471 5.70715 5.76471C6.302 5.76471 6.98182 5.76471 7.7466 5.76471C7.7466 5.76471 8.00158 5.72286 8.51146 5.63917L9.14878 5.26255C12.038 5.26255 14.7148 5.38809 17.1792 5.63917C19.6436 5.80656 22.0654 6.01579 24.4448 6.26688C26.9092 6.51796 29.3735 6.76903 31.8379 7.02013C34.3022 7.1875 37.064 7.27118 40.1232 7.27118C40.1232 7.52224 40.2082 7.73152 40.3781 7.8989L40.7606 8.27555C40.9305 8.35924 41.3129 8.40108 41.9078 8.40108C43.1824 8.40108 44.1597 8.40108 44.8394 8.40108C45.6043 8.3174 46.2416 8.23364 46.7515 8.14995C47.2614 7.98258 47.7287 7.81521 48.1536 7.64784C48.5785 7.4804 49.1308 7.31303 49.8107 7.14565C50.1506 7.56415 50.278 7.98258 50.1931 8.40108C50.1931 8.81951 50.533 9.27985 51.2128 9.78197C51.0429 10.0331 50.9579 10.326 50.9579 10.6608C50.9579 11.0792 51.0004 11.2885 51.0854 11.2885C51.0854 11.4559 51.0429 11.7488 50.9579 12.1673C50.8729 12.5857 50.8305 12.8787 50.8305 13.0461C50.8305 13.3808 50.8729 13.5901 50.9579 13.6738C51.1278 13.6738 51.2978 13.6738 51.4678 13.6738C50.533 14.2596 49.5983 14.7199 48.6635 15.0547C47.8137 15.3058 47.2188 15.4732 46.879 15.5568C45.8592 15.5568 44.9244 15.5568 44.0747 15.5568C43.3099 15.5568 42.4601 15.4732 41.5253 15.3058C40.2507 15.4732 39.3584 15.6405 38.8485 15.808C38.4236 15.8917 38.0837 15.9335 37.8288 15.9335C37.2339 15.9335 36.8091 15.8917 36.5542 15.808C36.2992 15.7242 35.9168 15.5987 35.407 15.4313H30.8181L31.328 22.2105L34.3872 29.7429V51.2104L35.152 53.8467V62.509L31.8379 63.5133L21.513 62.6345L18.3264 63.2622L16.7967 60.3748L16.4144 53.219V35.6433L18.5813 23.5915V15.4313ZM65.6913 16.4356C66.1158 15.1803 66.7532 14.2177 67.6029 13.5482C68.4527 12.795 69.5149 12.1673 70.7897 11.6651C72.0643 11.0792 73.6367 10.5352 75.5057 10.0331C77.3753 9.53091 79.4573 8.9032 81.7516 8.14995C81.8365 7.8989 82.3043 7.77337 83.1542 7.77337C84.0883 7.77337 85.0656 7.77337 86.0854 7.77337C87.19 7.77337 88.1673 7.73152 89.0172 7.64784C89.9521 7.4804 90.4623 7.1875 90.5472 6.76903C91.3115 6.93644 91.9491 7.06197 92.4587 7.14565C92.9689 7.22934 93.436 7.27118 93.8613 7.27118C94.3708 7.27118 94.881 7.27118 95.3905 7.27118C95.9857 7.27118 96.7082 7.27118 97.5574 7.27118H99.5969C99.7668 7.43856 99.9373 7.64784 100.107 7.8989C100.277 8.06627 100.447 8.23364 100.617 8.40108C100.957 8.40108 101.254 8.77767 101.509 9.53091C101.764 10.2005 102.062 10.9956 102.401 11.9162C102.741 12.8368 103.124 13.6738 103.549 14.427C103.973 15.1803 104.526 15.5568 105.206 15.5568H105.461C105.546 15.7242 105.588 16.2682 105.588 17.1889C105.673 18.0259 105.758 18.9465 105.843 19.9508C106.013 20.8714 106.183 21.7502 106.353 22.5872C106.523 23.4241 106.735 23.9262 106.99 24.0936C107.075 26.3534 107.203 27.9854 107.373 28.9897C107.628 29.994 107.84 30.7891 108.01 31.3749C108.265 31.8771 108.478 32.3375 108.647 32.7559C108.902 33.0907 109.072 33.5928 109.157 34.2624C109.157 34.2624 109.157 34.5972 109.157 35.2667C109.242 35.8525 109.327 36.5221 109.412 37.2753C109.497 37.9449 109.625 38.6145 109.794 39.284C109.964 39.9536 110.177 40.2883 110.432 40.2883C110.346 40.2883 110.262 40.3302 110.177 40.4138H109.794C109.879 42.3388 109.922 44.0545 109.922 45.561C110.007 47.0675 110.049 48.5321 110.049 49.9549C110.134 51.294 110.219 52.7168 110.304 54.2233C110.475 55.7298 110.602 57.4455 110.687 59.3705C110.346 60.04 110.049 60.584 109.794 61.0025C109.54 61.3372 109.37 61.7139 109.284 62.1323H107.5C106.82 61.7976 106.353 61.4209 106.098 61.0025C104.993 61.0025 104.016 61.0862 103.166 61.2536C102.317 61.3372 101.552 61.4628 100.871 61.6302C100.277 61.7976 99.6819 61.9231 99.0874 62.0068C98.4923 62.0905 97.8554 62.1323 97.1753 62.1323C96.3254 62.1323 95.3056 61.8394 94.116 61.2536C92.9264 60.584 91.7793 60.2493 90.6746 60.2493C89.6549 60.2493 88.8474 60.3748 88.2523 60.6258C87.7427 60.7933 87.3606 61.0443 87.1051 61.3791C86.9353 61.6302 86.7654 61.8394 86.5956 62.0068C86.5107 62.2579 86.3833 62.3835 86.2134 62.3835H86.0854H79.0752C77.9705 62.3835 76.8658 62.3416 75.7611 62.2579C74.6564 62.2579 73.4662 62.2579 72.1916 62.2579C71.087 62.2579 69.8124 61.965 68.3677 61.3791C66.9231 60.7095 65.5213 59.8726 64.1617 58.8683C62.802 57.7802 61.6548 56.6086 60.7201 55.3532C59.7854 54.0141 59.3179 52.675 59.3179 51.3359C59.3179 47.1512 60.2952 43.6361 62.2497 40.7905C64.2891 37.9449 67.348 35.5178 71.4266 33.5091C73.1265 33.0907 74.4859 32.6722 75.5057 32.2537C76.5254 31.8353 77.4178 31.4586 78.1828 31.1239C79.0327 30.7054 79.8394 30.4125 80.6044 30.2451C81.3694 29.994 82.3043 29.8684 83.4089 29.8684L87.2325 27.7343C87.9975 27.7343 88.6776 27.7343 89.272 27.7343C89.8672 27.6506 90.4623 27.5669 91.0568 27.4832L94.7536 27.2321V26.4789C94.7536 25.7256 94.7961 24.9306 94.881 24.0936C94.9659 23.173 95.2207 22.2105 95.646 21.2062C95.646 20.704 95.4755 20.3693 95.1358 20.2018C94.7961 19.9508 94.5406 19.6997 94.3708 19.4486C93.9462 19.2812 93.649 19.072 93.4784 18.8209C93.3935 18.4861 93.3086 18.1514 93.2237 17.8166C93.1387 17.4818 92.9264 17.1889 92.5867 16.9378C92.3313 16.6867 91.8642 16.5612 91.1841 16.5612C89.9096 16.5612 88.2523 16.7704 86.2134 17.1889C84.2589 17.6074 82.2193 18.1095 80.0949 18.6953C78.0554 19.2812 76.1433 19.8671 74.3585 20.453C72.6594 20.9551 71.3842 21.2899 70.535 21.4573C70.2795 21.4573 69.9823 21.2062 69.6426 20.704C69.3025 20.2018 68.9201 19.616 68.4952 18.9465C68.1553 18.2769 67.7304 17.691 67.2205 17.1889C66.7956 16.6867 66.2858 16.4356 65.6913 16.4356ZM93.351 37.5265C92.5867 37.359 91.7368 37.1498 90.802 36.8988C89.9521 36.6476 89.1022 36.3966 88.2523 36.1455H87.7427C87.0627 36.1455 86.3408 36.2292 85.5758 36.3966C84.8958 36.5639 84.1315 36.7732 83.2816 37.0243C81.5817 37.4427 79.9675 37.8194 78.4375 38.1541C76.9083 38.4889 75.5481 39.0329 74.3585 39.7862C73.2539 40.4557 72.3615 41.46 71.6821 42.7992C71.087 44.1382 70.7897 45.9795 70.7897 48.3229C70.7897 49.4946 70.9596 50.3734 71.2993 50.9592C71.7246 51.5451 72.2341 52.3402 72.8292 53.3446L81.7516 52.8424C83.1117 52.7587 84.5136 52.675 85.958 52.5913C87.403 52.5076 88.9748 52.382 90.6746 52.2147H92.4587V51.2104C92.4587 50.5408 92.5011 49.4946 92.5867 48.0719C92.6717 46.6491 92.9264 45.2681 93.351 43.929V37.5265ZM147.434 35.3923V35.6433C147.434 35.8944 147.518 36.0618 147.688 36.1455C148.368 35.476 149.005 34.9738 149.6 34.639C150.195 34.3042 150.705 33.9695 151.13 33.6347C151.98 33.2999 152.66 32.9233 153.169 32.5048C153.679 32.0026 154.699 31.4168 156.228 30.7473C157.758 29.2408 159.033 28.0691 160.053 27.2321C161.073 26.3952 162.007 25.7256 162.857 25.2235C163.706 24.7213 164.514 24.261 165.279 23.8425C166.043 23.4241 167.021 22.8801 168.21 22.2105C168.72 22.5453 169.187 22.7545 169.613 22.8382C170.037 22.9219 170.42 22.9637 170.76 22.9637C171.269 22.9637 171.61 22.9219 171.78 22.8382C172.374 23.173 172.799 23.6333 173.054 24.2192C173.394 24.805 173.692 25.349 173.946 25.8512C172.162 27.525 170.59 29.0315 169.23 30.3706C167.87 31.6261 166.596 32.7977 165.406 33.8858C164.217 34.8901 163.027 35.8944 161.837 36.8988C160.647 37.8194 159.33 38.7818 157.886 39.7862C158.991 40.6231 160.18 41.4182 161.455 42.1714C162.814 42.9247 164.217 43.7616 165.661 44.6822C167.105 45.6028 168.678 46.6072 170.378 47.6952C172.077 48.7833 173.819 50.1641 175.604 51.8381C175.944 52.3402 176.411 52.8424 177.006 53.3446C177.685 53.8467 178.323 54.3907 178.918 54.9766C179.512 55.4787 180.023 55.9809 180.447 56.483C180.872 56.9852 181.085 57.4873 181.085 57.9895C181.085 58.4916 180.829 58.8265 180.32 58.9938C179.81 59.1612 179.045 59.4542 178.026 59.8726C175.986 60.7933 174.456 61.7976 173.436 62.8856C172.416 64.0573 171.397 64.8524 170.378 65.2709L168.083 64.141C167.658 63.8899 167.361 63.7226 167.19 63.6388C167.105 63.5551 166.936 63.4296 166.681 63.2622C166.426 63.0949 166.086 62.8437 165.661 62.509C165.321 62.2579 164.769 61.7976 164.004 61.128C162.644 59.8726 161.837 59.0357 161.582 58.6172C161.327 58.1151 161.2 57.8222 161.2 57.7384V57.6129L160.69 56.7341C160.52 56.5667 160.308 56.2738 160.053 55.8553C159.797 55.4368 159.203 54.8092 158.268 53.9723C157.333 53.0516 156.059 51.9218 154.444 50.5826C152.83 49.1598 150.578 47.4023 147.688 45.3099C147.093 45.6447 146.753 46.0632 146.669 46.5654C146.669 47.0675 146.669 47.5278 146.669 47.9463C146.669 48.7833 146.711 49.4947 146.796 50.0805C146.881 50.6663 147.136 51.7543 147.561 53.3446C148.07 55.4368 148.283 57.3618 148.198 59.1194C148.198 60.877 148.283 62.509 148.453 64.0155C147.178 64.685 145.819 65.1453 144.374 65.3964C142.929 65.6475 141.442 65.773 139.912 65.773C138.468 65.8567 137.024 65.8567 135.579 65.773C134.134 65.773 132.902 65.773 131.882 65.773L130.608 63.3878C130.437 63.053 130.268 62.6764 130.098 62.2579C129.928 61.9231 129.716 61.4628 129.461 60.877C129.461 60.7095 129.503 60.4585 129.588 60.1237C129.758 59.7889 129.928 59.4542 130.098 59.1194C130.013 57.4455 129.97 55.8553 129.97 54.3489C129.97 52.8424 129.97 51.3777 129.97 49.9549C129.97 46.1887 130.013 42.6317 130.098 39.284C130.183 35.8525 130.268 32.463 130.352 29.1152C130.437 25.7675 130.523 22.3779 130.608 18.9465C130.778 15.4313 130.863 11.6651 130.863 7.64784V1.9985C131.202 1.66372 131.543 1.49634 131.882 1.49634C132.222 1.41264 132.647 1.11972 133.157 0.617554C134.347 0.701247 135.281 0.784939 135.961 0.868632C136.641 0.868632 137.236 0.910482 137.746 0.994175C138.341 0.994175 138.978 0.994175 139.658 0.994175C140.338 0.994175 141.4 0.994175 142.844 0.994175C143.27 2.33327 143.567 4.34191 143.737 7.02013C143.907 9.6146 144.034 12.4183 144.12 15.4313C144.204 18.3606 144.247 21.248 144.247 24.0936C144.247 26.9392 144.289 29.2408 144.374 30.9983L145.139 34.8901C145.394 35.3923 145.819 35.6433 146.414 35.6433C146.753 35.6433 147.093 35.5596 147.434 35.3923ZM189.479 29.994C189.735 28.1527 190.287 26.5626 191.137 25.2235C191.987 23.8007 193.049 22.5872 194.323 21.5828C195.598 20.4948 197 19.5742 198.53 18.8209C200.059 18.0677 201.589 17.4818 203.118 17.0633L212.169 15.6824C212.169 16.0172 212.381 16.2682 212.806 16.4356C213.316 16.6031 213.868 16.6867 214.463 16.6867C215.143 16.6867 215.907 16.6449 216.757 16.5612C217.607 16.4775 218.202 16.4356 218.542 16.4356H218.797C222.621 18.1932 225.553 20.704 227.593 23.968C229.717 27.2321 230.779 30.8728 230.779 34.8901C230.779 35.9781 230.396 37.0243 229.632 38.0286C228.867 39.033 227.932 39.9536 226.828 40.7905C225.808 41.5437 224.703 42.2133 223.514 42.7992C222.409 43.385 221.559 43.8035 220.964 44.0545L210.257 47.5697C209.747 47.9044 209.279 48.1555 208.855 48.3229C208.43 48.4903 208.047 48.6158 207.708 48.6995H204.648L191.137 44.8078L189.862 43.1757C189.267 41.6693 188.97 39.9117 188.97 37.9031C188.97 36.8151 188.97 35.6015 188.97 34.2624C189.055 32.9233 189.225 31.5005 189.479 29.994ZM213.061 24.2192C212.211 23.968 211.489 23.8425 210.894 23.8425C209.959 23.8425 209.067 24.0518 208.217 24.4702C207.452 24.805 206.73 25.2653 206.05 25.8512C205.456 26.3534 204.903 26.8555 204.393 27.3577C203.883 27.8598 203.374 28.2364 202.864 28.4875L202.226 36.02L205.541 38.9074H207.325L220.964 36.1455L224.278 31.3749C223.853 29.8684 223.216 28.7386 222.366 27.9854C221.601 27.2321 220.709 26.6463 219.689 26.2278C218.67 25.7256 217.565 25.349 216.375 25.0979C215.186 24.8469 214.081 24.5539 213.061 24.2192ZM267.357 55.2276H267.74L266.337 54.4744L265.955 53.219L254.993 42.7992L252.825 38.7818L244.413 25.349L244.795 24.0936L251.424 23.4659L252.698 23.968L261.494 33.5091L262.641 35.0156L272.583 43.3013L274.113 42.6736L275.26 41.2927L276.535 40.7905L277.809 37.2753L279.976 34.639L282.398 29.4919L287.242 23.3404H297.821V25.7257L296.292 30.2451L293.488 35.0156L289.536 40.665L285.712 49.5783L282.271 52.5913L280.486 55.3532H281.123V57.7384L279.594 60.2493L275.642 66.4007L272.583 73.9331L270.799 79.5826L268.249 81.591H259.454L258.052 82.5953H256.268L254.61 79.5826L267.357 55.2276ZM309.671 16.4356C310.096 15.1803 310.734 14.2177 311.583 13.5482C312.433 12.795 313.495 12.1673 314.769 11.6651C316.045 11.0792 317.616 10.5352 319.486 10.0331C321.356 9.53091 323.438 8.9032 325.732 8.14995C325.817 7.8989 326.284 7.77337 327.134 7.77337C328.069 7.77337 329.046 7.77337 330.066 7.77337C331.17 7.77337 332.148 7.73152 332.998 7.64784C333.932 7.4804 334.442 7.1875 334.527 6.76903C335.292 6.93644 335.93 7.06197 336.439 7.14565C336.949 7.22934 337.416 7.27118 337.841 7.27118C338.351 7.27118 338.861 7.27118 339.371 7.27118C339.965 7.27118 340.688 7.27118 341.538 7.27118H343.577C343.747 7.43856 343.917 7.64784 344.087 7.8989C344.257 8.06627 344.427 8.23364 344.597 8.40108C344.937 8.40108 345.234 8.77767 345.489 9.53091C345.744 10.2005 346.041 10.9956 346.381 11.9162C346.722 12.8368 347.104 13.6738 347.529 14.427C347.954 15.1803 348.506 15.5568 349.186 15.5568H349.44C349.525 15.7242 349.568 16.2682 349.568 17.1889C349.653 18.0259 349.738 18.9465 349.823 19.9508C349.993 20.8714 350.163 21.7502 350.333 22.5872C350.503 23.4241 350.716 23.9262 350.97 24.0936C351.055 26.3534 351.183 27.9854 351.353 28.9897C351.607 29.994 351.82 30.7891 351.99 31.3749C352.245 31.8771 352.457 32.3375 352.627 32.7559C352.883 33.0907 353.052 33.5928 353.137 34.2624C353.137 34.2624 353.137 34.5972 353.137 35.2667C353.222 35.8525 353.307 36.5221 353.392 37.2753C353.477 37.9449 353.604 38.6145 353.775 39.284C353.945 39.9536 354.157 40.2883 354.412 40.2883C354.327 40.2883 354.242 40.3302 354.157 40.4138H353.775C353.86 42.3388 353.902 44.0545 353.902 45.561C353.987 47.0675 354.03 48.5321 354.03 49.9549C354.115 51.294 354.199 52.7168 354.284 54.2233C354.454 55.7298 354.582 57.4455 354.667 59.3705C354.327 60.04 354.03 60.584 353.775 61.0025C353.519 61.3372 353.35 61.7139 353.265 62.1323H351.48C350.801 61.7976 350.333 61.4209 350.078 61.0025C348.973 61.0025 347.996 61.0862 347.146 61.2536C346.296 61.3372 345.532 61.4628 344.852 61.6302C344.257 61.7976 343.662 61.9231 343.067 62.0068C342.473 62.0905 341.835 62.1323 341.156 62.1323C340.306 62.1323 339.286 61.8394 338.096 61.2536C336.906 60.584 335.759 60.2493 334.654 60.2493C333.635 60.2493 332.828 60.3748 332.233 60.6258C331.723 60.7933 331.34 61.0443 331.086 61.3791C330.916 61.6302 330.746 61.8394 330.575 62.0068C330.49 62.2579 330.363 62.3835 330.193 62.3835H330.066H323.055C321.95 62.3835 320.845 62.3416 319.741 62.2579C318.636 62.2579 317.447 62.2579 316.172 62.2579C315.067 62.2579 313.792 61.965 312.348 61.3791C310.903 60.7095 309.501 59.8726 308.141 58.8683C306.782 57.7802 305.635 56.6086 304.7 55.3532C303.765 54.0141 303.297 52.675 303.297 51.3359C303.297 47.1512 304.275 43.6361 306.229 40.7905C308.269 37.9449 311.328 35.5178 315.407 33.5091C317.107 33.0907 318.466 32.6722 319.486 32.2537C320.506 31.8353 321.398 31.4586 322.162 31.1239C323.012 30.7054 323.82 30.4125 324.585 30.2451C325.349 29.994 326.284 29.8684 327.389 29.8684L331.213 27.7343C331.978 27.7343 332.657 27.7343 333.252 27.7343C333.848 27.6506 334.442 27.5669 335.037 27.4832L338.733 27.2321V26.4789C338.733 25.7256 338.776 24.9306 338.861 24.0936C338.946 23.173 339.201 22.2105 339.626 21.2062C339.626 20.704 339.456 20.3693 339.116 20.2018C338.776 19.9508 338.521 19.6997 338.351 19.4486C337.926 19.2812 337.629 19.072 337.459 18.8209C337.374 18.4861 337.289 18.1514 337.204 17.8166C337.119 17.4818 336.906 17.1889 336.566 16.9378C336.312 16.6867 335.844 16.5612 335.165 16.5612C333.89 16.5612 332.233 16.7704 330.193 17.1889C328.239 17.6074 326.199 18.1095 324.075 18.6953C322.035 19.2812 320.123 19.8671 318.339 20.453C316.639 20.9551 315.365 21.2899 314.515 21.4573C314.26 21.4573 313.963 21.2062 313.622 20.704C313.283 20.2018 312.9 19.616 312.475 18.9465C312.135 18.2769 311.71 17.691 311.201 17.1889C310.776 16.6867 310.266 16.4356 309.671 16.4356ZM337.331 37.5265C336.566 37.359 335.717 37.1498 334.782 36.8988C333.932 36.6476 333.083 36.3966 332.233 36.1455H331.723C331.043 36.1455 330.321 36.2292 329.556 36.3966C328.876 36.5639 328.111 36.7732 327.261 37.0243C325.562 37.4427 323.947 37.8194 322.418 38.1541C320.888 38.4889 319.529 39.0329 318.339 39.7862C317.234 40.4557 316.342 41.46 315.662 42.7992C315.067 44.1382 314.769 45.9795 314.769 48.3229C314.769 49.4946 314.94 50.3734 315.28 50.9592C315.704 51.5451 316.214 52.3402 316.809 53.3446L325.732 52.8424C327.091 52.7587 328.493 52.675 329.938 52.5913C331.383 52.5076 332.955 52.382 334.654 52.2147H336.439V51.2104C336.439 50.5408 336.482 49.4946 336.566 48.0719C336.651 46.6491 336.906 45.2681 337.331 43.929V37.5265Z" fill="#BC002D"/>
<path d="M211.113 44.6404C218.935 44.6404 225.276 38.7076 225.276 31.389C225.276 24.0704 218.935 18.1375 211.113 18.1375C203.291 18.1375 196.95 24.0704 196.95 31.389C196.95 38.7076 203.291 44.6404 211.113 44.6404Z" fill="#BC002D"/>
</g>
</g>
<defs>
<clipPath id="clip0_92_40">
<rect width="355" height="83" fill="white"/>
</clipPath>
</defs>
</svg>
